<svg xmlns="http://www.w3.org/2000/svg" viewBox="0 0 356.15 83.39"><defs><style>.cls-1,.cls-2,.cls-3{fill:#fff;}.cls-1,.cls-2{stroke:#fff;}.cls-1{stroke-width:2.35px;}.cls-2{stroke-width:0.78px;}</style></defs><title>mobilelocker_logo_white</title><g id="Layer_2" data-name="Layer 2"><g id="Layer_1-2" data-name="Layer 1"><path class="cls-1" d="M135.23,54.25h-.89V41.34q0-5-1.5-7.38a5.17,5.17,0,0,0-4.71-2.37,8,8,0,0,0-3.11.6,9.13,9.13,0,0,0-2.64,1.68,10.82,10.82,0,0,0-2.06,2.55A12.29,12.29,0,0,0,119,39.64V54.25h-.89V41.34q0-5.05-1.47-7.4a5.13,5.13,0,0,0-4.69-2.35,8.17,8.17,0,0,0-3.06.58,8.94,8.94,0,0,0-2.64,1.63,10.87,10.87,0,0,0-2.08,2.52,12.79,12.79,0,0,0-1.39,3.26V54.25h-.89V31.06h.89v6a12.33,12.33,0,0,1,3.87-4.69,8.7,8.7,0,0,1,5.12-1.65,6.62,6.62,0,0,1,4.83,1.83,7.89,7.89,0,0,1,2.23,4.92q3.49-6.75,9.3-6.75a6,6,0,0,1,5.36,2.61q1.74,2.61,1.74,8Z"/><path class="cls-1" d="M151.37,54.7a9.83,9.83,0,0,1-4.29-1,11.36,11.36,0,0,1-3.51-2.59,12.53,12.53,0,0,1,0-16.87,11.46,11.46,0,0,1,3.53-2.61,9.85,9.85,0,0,1,8.49,0,11.21,11.21,0,0,1,3.51,2.61,13.06,13.06,0,0,1,2.39,3.82,12,12,0,0,1,.89,4.63,12.55,12.55,0,0,1-3.24,8.43,11.4,11.4,0,0,1-3.51,2.59A9.83,9.83,0,0,1,151.37,54.7ZM141.22,42.81a11.32,11.32,0,0,0,.8,4.25,11.49,11.49,0,0,0,2.17,3.51,10.18,10.18,0,0,0,3.2,2.37,9,9,0,0,0,3.93.87,8.89,8.89,0,0,0,3.91-.89,10.8,10.8,0,0,0,3.26-2.41A11.33,11.33,0,0,0,160.71,47a11.44,11.44,0,0,0,.8-4.29,11.32,11.32,0,0,0-.8-4.25,11.57,11.57,0,0,0-2.19-3.53,10.57,10.57,0,0,0-3.24-2.41,9,9,0,0,0-7.82,0,10.38,10.38,0,0,0-3.24,2.44A11.8,11.8,0,0,0,142,38.5,11.61,11.61,0,0,0,141.22,42.81Z"/><path class="cls-1" d="M177.74,54.7a9.17,9.17,0,0,1-2.7-.4,11.09,11.09,0,0,1-2.5-1.12,12.49,12.49,0,0,1-2.19-1.68,9.85,9.85,0,0,1-1.68-2.08v4.83h-.89V21.63h.89V36.47a17.2,17.2,0,0,1,4.11-4.13,9.1,9.1,0,0,1,5.36-1.63,9.53,9.53,0,0,1,4.56,1.07,10.63,10.63,0,0,1,3.37,2.79,13,13,0,0,1,2.1,3.87,13.11,13.11,0,0,1,.74,4.29,12.34,12.34,0,0,1-.85,4.54,12.14,12.14,0,0,1-2.37,3.82,11.68,11.68,0,0,1-3.55,2.64A10,10,0,0,1,177.74,54.7Zm0-.89a9,9,0,0,0,4.13-1,10.68,10.68,0,0,0,3.26-2.52,11.74,11.74,0,0,0,2.12-3.55,11.26,11.26,0,0,0,.76-4,12.3,12.3,0,0,0-.72-4.16,11.16,11.16,0,0,0-2-3.55,10.33,10.33,0,0,0-3.13-2.48,9,9,0,0,0-7.11-.38,10,10,0,0,0-2.64,1.5,12.64,12.64,0,0,0-2.12,2.15,15.33,15.33,0,0,0-1.61,2.55v8.45a5.12,5.12,0,0,0,1,2.7,9.77,9.77,0,0,0,2.26,2.24,11.68,11.68,0,0,0,2.9,1.52A8.67,8.67,0,0,0,177.74,53.81Z"/><path class="cls-1" d="M196,25.07V21.63h.89v3.44Zm0,29.19V31.06h.89v23.2Z"/><path class="cls-1" d="M205.18,21.63h.89V50.81a2.7,2.7,0,0,0,.8,2.06,3,3,0,0,0,2.15.76,7.56,7.56,0,0,0,1.19-.11,9.55,9.55,0,0,0,1.27-.29l.31.71a9.27,9.27,0,0,1-1.54.38,9.48,9.48,0,0,1-1.54.16,3.4,3.4,0,0,1-2.55-1,3.63,3.63,0,0,1-1-2.66Z"/><path class="cls-1" d="M225,54.7a10,10,0,0,1-4.31-1,11.23,11.23,0,0,1-3.55-2.64,13,13,0,0,1-2.41-3.89,12.9,12.9,0,0,1,0-9.32A11.84,11.84,0,0,1,217,34.14a11,11,0,0,1,3.49-2.52,10.07,10.07,0,0,1,4.27-.92,10.27,10.27,0,0,1,4.36.94,11.19,11.19,0,0,1,3.53,2.55,12.42,12.42,0,0,1,2.39,3.8,12.29,12.29,0,0,1,.89,4.69v.49H214.74a12.59,12.59,0,0,0,1.05,4.18,11.63,11.63,0,0,0,2.26,3.37,10.44,10.44,0,0,0,3.2,2.26,9.08,9.08,0,0,0,3.82.83,9.62,9.62,0,0,0,2.61-.36,10.3,10.3,0,0,0,2.39-1,8.74,8.74,0,0,0,2-1.54,7.25,7.25,0,0,0,1.34-2l.85.22a7.48,7.48,0,0,1-1.41,2.21,9.49,9.49,0,0,1-2.15,1.74A11.44,11.44,0,0,1,228,54.28,10.56,10.56,0,0,1,225,54.7Zm10-12.42a12.55,12.55,0,0,0-1-4.29,11.14,11.14,0,0,0-2.21-3.37,10.14,10.14,0,0,0-3.15-2.21,9.59,9.59,0,0,0-7.69,0,10,10,0,0,0-3.15,2.23,10.79,10.79,0,0,0-2.17,3.4,13.2,13.2,0,0,0-.94,4.25Z"/><path class="cls-2" d="M241.56,21.63h.89V50.81a2.7,2.7,0,0,0,.8,2.06,3,3,0,0,0,2.15.76,7.56,7.56,0,0,0,1.19-.11,9.55,9.55,0,0,0,1.27-.29l.31.71a9.27,9.27,0,0,1-1.54.38,9.48,9.48,0,0,1-1.54.16,3.4,3.4,0,0,1-2.55-1,3.63,3.63,0,0,1-1-2.66Z"/><path class="cls-2" d="M260.38,54.7a9.83,9.83,0,0,1-4.29-1,11.36,11.36,0,0,1-3.51-2.59,12.53,12.53,0,0,1,0-16.87,11.46,11.46,0,0,1,3.53-2.61,9.85,9.85,0,0,1,8.49,0,11.21,11.21,0,0,1,3.51,2.61,13.06,13.06,0,0,1,2.39,3.82,12,12,0,0,1,.89,4.63,12.55,12.55,0,0,1-3.24,8.43,11.4,11.4,0,0,1-3.51,2.59A9.83,9.83,0,0,1,260.38,54.7ZM250.23,42.81a11.32,11.32,0,0,0,.8,4.25,11.49,11.49,0,0,0,2.17,3.51,10.18,10.18,0,0,0,3.2,2.37,9,9,0,0,0,3.93.87,8.89,8.89,0,0,0,3.91-.89,10.8,10.8,0,0,0,3.26-2.41A11.33,11.33,0,0,0,269.72,47a11.44,11.44,0,0,0,.8-4.29,11.32,11.32,0,0,0-.8-4.25,11.57,11.57,0,0,0-2.19-3.53,10.57,10.57,0,0,0-3.24-2.41,9,9,0,0,0-7.82,0,10.38,10.38,0,0,0-3.24,2.44A11.8,11.8,0,0,0,251,38.5,11.61,11.61,0,0,0,250.23,42.81Z"/><path class="cls-2" d="M275.53,42.54a12.66,12.66,0,0,1,.85-4.67,11.2,11.2,0,0,1,5.92-6.26,10.58,10.58,0,0,1,4.4-.92A10.11,10.11,0,0,1,292,32.06a8.6,8.6,0,0,1,3.46,3.82l-.89.31a8.53,8.53,0,0,0-3.28-3.37,9.16,9.16,0,0,0-4.67-1.23,9.34,9.34,0,0,0-4,.85,10.35,10.35,0,0,0-3.22,2.32,10.66,10.66,0,0,0-2.17,3.49,12.12,12.12,0,0,0,0,8.63,11.47,11.47,0,0,0,2.21,3.6,10.71,10.71,0,0,0,3.24,2.44,8.85,8.85,0,0,0,3.93.89,9.55,9.55,0,0,0,2.71-.4,11.2,11.2,0,0,0,2.5-1.07,8.16,8.16,0,0,0,1.94-1.56,4.66,4.66,0,0,0,1.07-1.83l.89.27a6.59,6.59,0,0,1-1.27,2.17,8.83,8.83,0,0,1-2.08,1.74,11,11,0,0,1-2.66,1.16,10.56,10.56,0,0,1-3,.42,10.11,10.11,0,0,1-4.34-1,11.31,11.31,0,0,1-3.58-2.61,12.7,12.7,0,0,1-2.41-3.87A12.46,12.46,0,0,1,275.53,42.54Z"/><path class="cls-2" d="M317.45,54.25,307.58,41l-6.3,5.72v7.55h-.89V21.63h.89V45.49L317.1,31.15h1.21l-10.06,9.21,10.28,13.9Z"/><path class="cls-2" d="M330,54.7a10,10,0,0,1-4.31-1,11.23,11.23,0,0,1-3.55-2.64,13,13,0,0,1-2.41-3.89,12.9,12.9,0,0,1,0-9.32A11.84,11.84,0,0,1,322,34.14a11,11,0,0,1,3.49-2.52,10.07,10.07,0,0,1,4.27-.92,10.27,10.27,0,0,1,4.36.94,11.19,11.19,0,0,1,3.53,2.55,12.42,12.42,0,0,1,2.39,3.8,12.29,12.29,0,0,1,.89,4.69v.49H319.73a12.59,12.59,0,0,0,1.05,4.18A11.63,11.63,0,0,0,323,50.72a10.44,10.44,0,0,0,3.2,2.26,9.08,9.08,0,0,0,3.82.83,9.62,9.62,0,0,0,2.61-.36,10.3,10.3,0,0,0,2.39-1,8.74,8.74,0,0,0,2-1.54,7.25,7.25,0,0,0,1.34-2l.85.22a7.48,7.48,0,0,1-1.41,2.21,9.49,9.49,0,0,1-2.15,1.74A11.44,11.44,0,0,1,333,54.28,10.56,10.56,0,0,1,330,54.7Zm10-12.42A12.55,12.55,0,0,0,339,38a11.14,11.14,0,0,0-2.21-3.37,10.14,10.14,0,0,0-3.15-2.21,9.59,9.59,0,0,0-7.69,0,10,10,0,0,0-3.15,2.23,10.79,10.79,0,0,0-2.17,3.4,13.2,13.2,0,0,0-.94,4.25Z"/><path class="cls-2" d="M355.76,32a9.17,9.17,0,0,0-5.7,2.15,10.53,10.53,0,0,0-3.33,5.5V54.25h-.89V31.06h.89v6A11.42,11.42,0,0,1,350,33a8.57,8.57,0,0,1,4.31-1.85l.83-.07.65,0Z"/><path class="cls-3" d="M81.79,40.21,61.65,20.05a5.78,5.78,0,0,0-8.18,0l-2.1,2.09a21.77,21.77,0,0,1,2.06,5.8l2-1.95a2.28,2.28,0,0,1,3.23,0L75.84,43.23a2.28,2.28,0,0,1,0,3.23L46.45,75.75a2.29,2.29,0,0,1-3.23,0L26,58.51a2.27,2.27,0,0,1,0-3.23l1.48-1.47a21.79,21.79,0,0,1-5.79-2.08L20,53.35a5.78,5.78,0,0,0,0,8.18L40.18,81.69a5.79,5.79,0,0,0,8.19,0L81.78,48.4A5.78,5.78,0,0,0,81.79,40.21Z"/><path class="cls-3" d="M50.25,32.28A18.13,18.13,0,1,0,32.12,50.41,18.13,18.13,0,0,0,50.25,32.28Zm-33.31,0A15.18,15.18,0,1,1,32.12,47.45,15.2,15.2,0,0,1,16.94,32.28Z"/><path class="cls-3" d="M30.7,9.88a1.57,1.57,0,1,0,0-3.14,24,24,0,0,0-24,24,1.57,1.57,0,1,0,3.13,0A20.86,20.86,0,0,1,30.7,9.88Z"/><path class="cls-3" d="M29.28,3.13a1.57,1.57,0,0,0,0-3.13A29.28,29.28,0,0,0,0,29.28a1.57,1.57,0,0,0,3.14,0A26.18,26.18,0,0,1,29.28,3.13Z"/><path class="cls-3" d="M40.27,32.2v-.35a.88.88,0,0,0-.88-.88h-.73V26.45A3.56,3.56,0,0,0,35.1,22.9H28.44a3.57,3.57,0,0,0-3.56,3.56V31h-.44a.87.87,0,0,0-.88.88v.35h-.37v8.47h.37v.11a.87.87,0,0,0,.88.88h15a.88.88,0,0,0,.88-.88v-.11h.34V32.2ZM35.73,31H27.81V26.45a.62.62,0,0,1,.63-.62H35.1a.62.62,0,0,1,.62.62Z"/><path class="cls-3" d="M57.66,30.45l-3.32,3.31A22.62,22.62,0,0,1,33.52,54.49l-2.83,2.82L45.12,71.74l27-26.86Z"/></g></g></svg>