<?xml version="1.0" encoding="UTF-8"?>
<svg id="Layer_1" xmlns="http://www.w3.org/2000/svg" version="1.1" viewBox="0 0 1011.7 213.1">
  <!-- Generator: Adobe Illustrator 29.4.0, SVG Export Plug-In . SVG Version: 2.1.0 Build 152)  -->
  <defs>
    <style>
      .st0, .st1 {
        fill: #0292b3;
      }

      .st2 {
        isolation: isolate;
      }

      .st1 {
        stroke: #0292b3;
        stroke-width: .6px;
      }

      .st3 {
        fill: #00334d;
      }
    </style>
  </defs>
  <g class="st2">
    <path class="st3" d="M355.4,146.5h-11v-36.5c0-6.8-1.1-11.9-3.3-15.1-2.2-3.3-5.5-4.9-9.8-4.9s-8.5,1.6-12.1,4.8c-3.5,3.2-6.1,7.4-7.6,12.4v39.3h-11v-36.5c0-7-1.1-12.1-3.3-15.3-2.2-3.2-5.4-4.8-9.8-4.8s-8.4,1.6-12,4.7c-3.6,3.1-6.1,7.3-7.6,12.4v39.4h-11v-65.3h10v14c2.7-4.8,6.1-8.6,10.4-11.2s9-3.9,14.4-3.9,9.9,1.5,13.1,4.4c3.2,3,5.2,6.8,5.9,11.4,5.8-10.6,14.1-15.9,24.9-15.9s6.9.7,9.4,2.1c2.5,1.4,4.6,3.3,6.1,5.8,1.5,2.5,2.6,5.4,3.3,8.7.7,3.3,1,7,1,10.9v39Z"/>
    <path class="st3" d="M397.3,147.8c-4.9,0-9.4-.9-13.4-2.8-4-1.8-7.5-4.3-10.4-7.4-2.9-3.1-5.1-6.7-6.7-10.8-1.6-4.1-2.4-8.4-2.4-12.9s.8-8.9,2.4-13c1.6-4.1,3.9-7.7,6.8-10.8,2.9-3.1,6.3-5.5,10.4-7.4,4-1.8,8.5-2.8,13.3-2.8s9.3.9,13.4,2.8c4.1,1.8,7.6,4.3,10.4,7.4,2.9,3.1,5.1,6.7,6.8,10.8,1.6,4.1,2.4,8.4,2.4,13s-.8,8.8-2.4,12.9c-1.6,4.1-3.8,7.7-6.8,10.8-2.9,3.1-6.4,5.5-10.4,7.4-4,1.8-8.5,2.8-13.4,2.8ZM375.7,114.1c0,3.4.6,6.6,1.7,9.5,1.1,2.9,2.7,5.5,4.6,7.6,2,2.2,4.3,3.9,6.9,5.1,2.6,1.3,5.4,1.9,8.4,1.9s5.8-.6,8.4-1.9c2.6-1.2,4.9-3,6.9-5.2,2-2.2,3.6-4.8,4.7-7.8,1.1-3,1.7-6.1,1.7-9.6s-.6-6.5-1.7-9.4c-1.1-3-2.7-5.5-4.7-7.8-2-2.2-4.3-3.9-6.9-5.2-2.6-1.3-5.4-1.9-8.4-1.9s-5.8.6-8.4,1.9c-2.6,1.3-4.9,3-6.9,5.3-2,2.2-3.5,4.8-4.6,7.8-1.1,3-1.7,6.2-1.7,9.6Z"/>
    <path class="st3" d="M473.5,147.8c-5.1,0-9.7-1.3-13.9-3.8-4.2-2.5-7.5-5.8-9.9-9.8v12.3h-9.8V55.2h11v39c2.8-4.3,6.1-7.7,10.1-10.3,4-2.6,8.7-3.9,14-3.9s8.5,1,12.1,2.9c3.6,1.9,6.6,4.4,9.2,7.6,2.5,3.1,4.5,6.8,5.9,10.9,1.4,4.1,2.1,8.4,2.1,12.7s-.8,8.9-2.4,13c-1.6,4.1-3.8,7.7-6.5,10.7-2.8,3-6,5.5-9.8,7.3-3.8,1.8-7.9,2.7-12.2,2.7ZM470.8,138.3c3.3,0,6.3-.7,9-2,2.8-1.3,5.1-3.1,7.1-5.4,2-2.3,3.5-4.8,4.6-7.7,1.1-2.9,1.6-5.9,1.6-9.1s-.5-6.2-1.6-9.2c-1-3-2.5-5.6-4.4-7.8-1.9-2.3-4.1-4.1-6.8-5.4-2.6-1.4-5.5-2.1-8.7-2.1s-4.5.4-6.6,1.3c-2.1.8-4,1.9-5.8,3.3-1.8,1.4-3.4,3-4.8,4.8-1.4,1.8-2.6,3.8-3.6,5.9v18.9c.4,2.1,1.3,4,2.7,5.8s3,3.3,4.9,4.6c1.9,1.3,3.9,2.3,6,3.1,2.1.8,4.2,1.1,6.2,1.1Z"/>
    <path class="st3" d="M514.2,69v-13.8h11v13.8h-11ZM514.2,146.5v-65.3h11v65.3h-11Z"/>
    <path class="st3" d="M534.9,55.2h11v74.4c0,2.4.6,4.3,1.9,5.7,1.3,1.4,3.1,2.1,5.4,2.1s2-.1,3.3-.4c1.3-.3,2.4-.6,3.5-1.1l1.8,8.9c-1.8.8-4,1.4-6.5,1.9-2.5.5-4.7.8-6.6.8-4.3,0-7.6-1.2-10.1-3.6-2.5-2.4-3.7-5.8-3.7-10.1V55.2Z"/>
    <path class="st3" d="M595.6,147.8c-4.9,0-9.4-.9-13.5-2.7-4.1-1.8-7.6-4.2-10.5-7.3-2.9-3.1-5.2-6.7-6.8-10.8-1.6-4.1-2.4-8.5-2.4-13.1s.8-8.9,2.4-13c1.6-4.1,3.9-7.7,6.9-10.8,3-3.1,6.5-5.5,10.6-7.3,4.1-1.8,8.6-2.7,13.5-2.7s9.4.9,13.4,2.8c4,1.8,7.5,4.3,10.3,7.3,2.8,3,5,6.6,6.6,10.6,1.5,4,2.3,8.2,2.3,12.6s0,1.8,0,2.5c0,.8-.1,1.3-.2,1.8h-54.2c.3,3.3,1,6.2,2.3,8.9,1.3,2.7,2.9,5,4.9,6.9,2,1.9,4.3,3.4,6.8,4.5,2.5,1.1,5.2,1.6,8.1,1.6s4-.3,5.9-.8c1.9-.5,3.7-1.3,5.4-2.2,1.7-.9,3.1-2,4.4-3.4,1.3-1.3,2.3-2.8,2.9-4.5l9.5,2.6c-1.1,2.4-2.6,4.6-4.4,6.6-1.9,2-4,3.7-6.5,5.2-2.5,1.5-5.2,2.6-8.2,3.4s-6.1,1.3-9.4,1.3ZM618,109.5c-.2-3.1-1-5.9-2.3-8.6-1.3-2.6-2.9-4.9-4.9-6.7-2-1.8-4.2-3.3-6.8-4.3-2.6-1-5.3-1.6-8.3-1.6s-5.7.5-8.3,1.6c-2.6,1-4.9,2.5-6.8,4.4-2,1.9-3.5,4.1-4.8,6.7-1.2,2.6-1.9,5.4-2.2,8.5h44.3Z"/>
    <path class="st3" d="M672.5,55.2h11v74.4c0,2.4.6,4.3,1.9,5.7,1.3,1.4,3.1,2.1,5.4,2.1s2-.1,3.3-.4c1.3-.3,2.4-.6,3.5-1.1l1.8,8.9c-1.8.8-4,1.4-6.5,1.9-2.5.5-4.7.8-6.6.8-4.3,0-7.6-1.2-10.1-3.6-2.5-2.4-3.7-5.8-3.7-10.1V55.2Z"/>
    <path class="st3" d="M732.9,147.8c-4.9,0-9.4-.9-13.4-2.8-4-1.8-7.5-4.3-10.4-7.4-2.9-3.1-5.1-6.7-6.7-10.8-1.6-4.1-2.4-8.4-2.4-12.9s.8-8.9,2.4-13c1.6-4.1,3.9-7.7,6.8-10.8,2.9-3.1,6.3-5.5,10.4-7.4,4-1.8,8.5-2.8,13.3-2.8s9.3.9,13.4,2.8c4.1,1.8,7.6,4.3,10.4,7.4,2.9,3.1,5.1,6.7,6.8,10.8,1.6,4.1,2.4,8.4,2.4,13s-.8,8.8-2.4,12.9c-1.6,4.1-3.8,7.7-6.8,10.8-2.9,3.1-6.4,5.5-10.4,7.4-4,1.8-8.5,2.8-13.4,2.8ZM711.3,114.1c0,3.4.6,6.6,1.7,9.5,1.1,2.9,2.7,5.5,4.6,7.6,2,2.2,4.3,3.9,6.9,5.1,2.6,1.3,5.4,1.9,8.4,1.9s5.8-.6,8.4-1.9c2.6-1.2,4.9-3,6.9-5.2,2-2.2,3.6-4.8,4.7-7.8,1.1-3,1.7-6.1,1.7-9.6s-.6-6.5-1.7-9.4c-1.1-3-2.7-5.5-4.7-7.8-2-2.2-4.3-3.9-6.9-5.2s-5.4-1.9-8.4-1.9-5.8.6-8.4,1.9c-2.6,1.3-4.9,3-6.9,5.3-2,2.2-3.5,4.8-4.6,7.8-1.1,3-1.7,6.2-1.7,9.6Z"/>
    <path class="st3" d="M775.8,113.8c0-4.6.8-8.9,2.4-13,1.6-4.1,3.8-7.6,6.8-10.7,2.9-3,6.4-5.5,10.4-7.3,4-1.8,8.6-2.7,13.6-2.7s12.1,1.4,16.8,4.3c4.7,2.9,8.3,6.7,10.7,11.6l-10.8,3.4c-1.7-3.1-4-5.5-7-7.2-3-1.7-6.3-2.6-10-2.6s-5.8.6-8.5,1.8c-2.7,1.2-5,2.9-6.9,5.1-1.9,2.2-3.4,4.7-4.6,7.6-1.1,2.9-1.7,6.1-1.7,9.6s.6,6.6,1.8,9.6c1.2,3,2.7,5.6,4.7,7.8,2,2.2,4.3,3.9,6.9,5.2,2.6,1.3,5.4,1.9,8.4,1.9s3.8-.3,5.7-.8c1.9-.5,3.6-1.3,5.1-2.2,1.5-.9,2.9-2,4.1-3.2,1.2-1.2,2-2.5,2.5-3.9l10.8,3.3c-1,2.4-2.4,4.6-4.2,6.6-1.8,2-3.9,3.7-6.3,5.1-2.4,1.4-5.1,2.5-8.1,3.4-3,.8-6.1,1.3-9.3,1.3-4.9,0-9.4-.9-13.5-2.8-4.1-1.8-7.6-4.3-10.5-7.4-2.9-3.1-5.2-6.7-6.8-10.8-1.6-4.1-2.4-8.5-2.4-13.1Z"/>
    <path class="st3" d="M892.6,146.5l-22.5-31.9-12.5,11.8v20.1h-11V55.2h11v60l33.5-33.9h12.1l-26,27,27.3,38.1h-11.9Z"/>
    <path class="st3" d="M934.5,147.8c-4.9,0-9.4-.9-13.5-2.7-4.1-1.8-7.6-4.2-10.5-7.3-2.9-3.1-5.2-6.7-6.8-10.8-1.6-4.1-2.4-8.5-2.4-13.1s.8-8.9,2.4-13c1.6-4.1,3.9-7.7,6.9-10.8,3-3.1,6.5-5.5,10.6-7.3,4.1-1.8,8.6-2.7,13.5-2.7s9.4.9,13.4,2.8c4,1.8,7.5,4.3,10.3,7.3,2.8,3,5,6.6,6.6,10.6,1.5,4,2.3,8.2,2.3,12.6s0,1.8,0,2.5c0,.8-.1,1.3-.2,1.8h-54.2c.3,3.3,1,6.2,2.3,8.9,1.3,2.7,2.9,5,4.9,6.9,2,1.9,4.3,3.4,6.8,4.5,2.5,1.1,5.2,1.6,8.1,1.6s4-.3,5.9-.8c1.9-.5,3.7-1.3,5.4-2.2,1.7-.9,3.1-2,4.4-3.4,1.3-1.3,2.3-2.8,2.9-4.5l9.5,2.6c-1.1,2.4-2.6,4.6-4.4,6.6-1.9,2-4,3.7-6.5,5.2-2.5,1.5-5.2,2.6-8.2,3.4s-6.1,1.3-9.4,1.3ZM956.9,109.5c-.2-3.1-1-5.9-2.3-8.6-1.3-2.6-2.9-4.9-4.9-6.7-2-1.8-4.2-3.3-6.8-4.3-2.6-1-5.3-1.6-8.3-1.6s-5.7.5-8.3,1.6c-2.6,1-4.9,2.5-6.8,4.4-2,1.9-3.5,4.1-4.8,6.7-1.2,2.6-1.9,5.4-2.2,8.5h44.3Z"/>
    <path class="st3" d="M1011.7,90.9c-5.5.2-10.4,1.6-14.6,4.3-4.2,2.7-7.2,6.4-8.9,11.1v40.3h-11v-65.3h10.3v15.1c2.3-4.5,5.2-8.1,8.9-10.9,3.7-2.8,7.6-4.4,11.8-4.7h2.1c.6,0,1.1,0,1.5.1v10Z"/>
  </g>
  <g id="Layer_1-2">
    <path class="st3" d="M208.8,102.6l-51.3-51.6c-5.9-5.9-15.1-5.9-20.9,0h0l-5.4,5.4c2.6,4.6,4.3,9.7,5.4,14.8l5.1-5.1c2.3-2.3,5.9-2.3,8.2,0h0l43.9,43.9c2.3,2.3,2.3,5.9,0,8.2h0l-75,75.3c-2.3,2.3-5.9,2.3-8.2,0l-44.2-44.2c-2.3-2.3-2.3-5.9,0-8.2h0l3.8-3.8c-5.1-1-10.2-2.8-14.8-5.4l-4.3,4.1c-5.9,5.9-5.9,15.1,0,20.9h0l51.6,51.6c5.9,5.9,15.1,5.9,20.9,0h0l85.3-85c5.6-5.9,5.9-15.1,0-20.9h0Z"/>
    <path class="st0" d="M128.1,82.5c0-25.5-20.7-46.2-46.2-46.2s-46.2,20.7-46.2,46.2,20.7,46.2,46.2,46.2,46.2-20.7,46.2-46.2h0ZM43.1,82.5c0-21.4,17.4-38.8,38.8-38.8s38.8,17.4,38.8,38.8-17.4,38.8-38.8,38.8h0c-21.4-.3-38.5-17.4-38.8-38.8Z"/>
    <path class="st0" d="M78.4,25.3c2.3,0,4.1-1.8,4.1-4.1s-1.8-4.1-4.1-4.1c-34,0-61.3,27.3-61.3,61.3-.3,2.3,1.5,4.1,3.6,4.3,2.3.3,4.3-1.3,4.3-3.6v-.8c0-29.4,24-53.1,53.4-53.1h0Z"/>
    <path class="st0" d="M74.8,7.9c2.3-.3,3.8-2,3.6-4.3,0-1.8-1.8-3.3-3.6-3.6C33.4,0,0,33.4,0,74.8h0c0,2.3,1.8,4.1,4.1,4.1s4.1-1.8,4.1-4.1C8.2,37.8,37.8,8.2,74.8,7.9Z"/>
    <path class="st3" d="M102.9,82.2v-1c0-1.3-1-2.3-2.3-2.3h-1.8v-11.5c0-5.1-4.1-9.2-9.2-9.2h-17.1c-5.1,0-9.2,4.1-9.2,9.2v11.7h-1c-1.3,0-2.3,1-2.3,2.3h0v1h-1v21.7h1v.3c0,1.3,1,2.3,2.3,2.3h38.3c1.3,0,2.3-1,2.3-2.3h0v-.3h.8v-21.7h-.8v-.3ZM91.1,79.1h-20.2v-11.5c0-.8.8-1.5,1.5-1.5h17.1c.8,0,1.5.8,1.5,1.5v11.5Z"/>
    <path class="st0" d="M147.3,77.9l-8.4,8.4c-2.3,28.3-24.8,50.8-53.1,52.8l-7.1,7.1,36.8,36.8,68.9-68.7-37-36.5Z"/>
  </g>
  <g>
    <path class="st1" d="M324.1,184.9c0,1.2,0,4.8,4.6,4.8s4.8-1.4,4.8-3.5-1.6-2.6-4.8-3.4c-6-1.5-9.3-3.3-9.3-7.7s3-7.8,10-7.8,5.7.6,7.6,3c1.4,1.8,1.4,3.8,1.4,4.7h-5.2c0-.9-.3-3.9-4.1-3.9s-4.2,1.4-4.2,3.4,1.9,2.8,5.5,3.7c4.4,1,8.7,2.2,8.7,7.2s-3.8,8.2-10.8,8.2-9.8-6.2-9.8-8.7h5.5Z"/>
    <path class="st1" d="M348.6,167.7h8.9l5.4,18.4,5.8-18.4h8.6v25.3h-5.4v-21.7l-6.9,21.7h-4.5l-6.8-21.7v21.7h-5.1v-25.3Z"/>
    <path class="st1" d="M401.1,167.7l8.8,25.3h-5.5l-1.8-5.5h-10l-1.9,5.5h-5.2l9.1-25.3h6.4ZM401.3,183.4l-3.5-10.8-3.7,10.8h7.2Z"/>
    <path class="st1" d="M418.6,167.7h9.7c2.8,0,5.6,0,7.7,1.7,1.6,1.4,2.2,3.2,2.2,4.9,0,4.7-4.1,5.8-5.3,6.2,3.8.3,4.1,2.5,4.6,5.8.4,3,.6,4.2.8,4.9.3,1.1.5,1.4.8,1.8h-6c-.2-1.4-1-7.8-1.4-8.8-.5-1.4-1.8-1.4-2.7-1.4h-4.8v10.2h-5.5v-25.3ZM423.9,178.7h4.4c.6,0,1.9,0,2.8-.7.4-.3,1.4-1.2,1.4-2.9s-.8-2.5-1.3-2.8c-.8-.6-1.9-.6-3.6-.6h-3.6v7.1Z"/>
    <path class="st1" d="M452.9,171.9h-7.5v-4.2h20.5v4.2h-7.5v21.1h-5.5v-21.1Z"/>
    <path class="st1" d="M474.7,167.7h16.9v4.1h-11.5v6h10.8v4.1h-10.8v6.8h11.9v4.2h-17.3v-25.3Z"/>
    <path class="st1" d="M501.4,167.7h9.7c2.8,0,5.6,0,7.7,1.7,1.6,1.4,2.2,3.2,2.2,4.9,0,4.7-4.1,5.8-5.3,6.2,3.8.3,4.1,2.5,4.6,5.8.4,3,.6,4.2.8,4.9.3,1.1.5,1.4.8,1.8h-6c-.2-1.4-1-7.8-1.4-8.8-.5-1.4-1.8-1.4-2.7-1.4h-4.8v10.2h-5.5v-25.3ZM506.8,178.7h4.4c.6,0,1.9,0,2.8-.7.4-.3,1.4-1.2,1.4-2.9s-.8-2.5-1.3-2.8c-.8-.6-1.9-.6-3.6-.6h-3.6v7.1Z"/>
    <path class="st1" d="M546.3,167.7h5.4v10.1h9.6v-10.1h5.5v25.3h-5.4v-11.1h-9.6v11.1h-5.4v-25.3Z"/>
    <path class="st1" d="M591.7,175.9c-.1-.9-.4-4.4-4.1-4.4s-5.7,4.2-5.7,9.4,0,8.7,5.3,8.7,4.4-1.4,4.5-4.8h5.7c-.1,1.5-.2,3.8-2.3,6-2.2,2.3-5.1,2.8-7.4,2.8-8.7,0-11.6-6.4-11.6-12.7s4.5-13.3,11.6-13.3,9.4,3.4,9.4,8.4h-5.5Z"/>
    <path class="st1" d="M606.5,167.7h7.8c3.6,0,6.7.2,8.8,2.8,1.3,1.6,1.5,3.4,1.5,4.7,0,2.9-1.2,5.4-3.2,6.7-1.9,1.2-4.4,1.2-5.7,1.2h-3.7v9.8h-5.5v-25.2ZM611.9,179.1h2.2c1.8,0,5,0,5-3.9s-2.9-3.4-4.4-3.4h-2.7v7.3Z"/>
    <path class="st1" d="M649.6,167.7h16.9v4.1h-11.5v6h10.8v4.1h-10.8v6.8h11.9v4.2h-17.3v-25.3Z"/>
    <path class="st1" d="M676.7,167.7h7.8l9.5,19.9v-19.9h5v25.3h-7.5l-9.8-21v21h-5.1v-25.3Z"/>
    <path class="st1" d="M726.6,175.4c0-.7,0-1.6-.7-2.6-1.1-1.7-3-2-4.2-2-6.2,0-7.4,5.7-7.4,9.6s.2,4.8,2.1,6.8c1.3,1.4,2.9,2.2,6,2.2s3.5-.3,4.1-.5v-5.3h-4.9v-4.2h10.3v12.6c-1.6.5-4.2,1.4-9.2,1.4s-8.8-1.4-10.7-3.4c-2.8-2.8-3.4-6.8-3.4-9.5,0-9,5.6-13.8,13.3-13.8s6.6.9,8.6,3.2c1.7,1.9,1.8,3.9,1.8,5.3h-5.6Z"/>
    <path class="st1" d="M756,167.7l8.8,25.3h-5.5l-1.8-5.5h-10l-1.9,5.5h-5.2l9.1-25.3h6.4ZM756.1,183.4l-3.5-10.8-3.7,10.8h7.2Z"/>
    <path class="st1" d="M790,175.4c0-.7,0-1.6-.7-2.6-1.1-1.7-3-2-4.2-2-6.2,0-7.4,5.7-7.4,9.6s.2,4.8,2.1,6.8c1.3,1.4,2.9,2.2,6,2.2s3.5-.3,4.1-.5v-5.3h-4.9v-4.2h10.3v12.6c-1.6.5-4.2,1.4-9.2,1.4s-8.8-1.4-10.7-3.4c-2.8-2.8-3.4-6.8-3.4-9.5,0-9,5.6-13.8,13.3-13.8s6.6.9,8.6,3.2c1.7,1.9,1.8,3.9,1.8,5.3h-5.6Z"/>
    <path class="st1" d="M806.3,167.7h16.9v4.1h-11.5v6h10.8v4.1h-10.8v6.8h11.9v4.2h-17.3v-25.3Z"/>
    <path class="st1" d="M833,167.7h8.9l5.4,18.4,5.8-18.4h8.6v25.3h-5.4v-21.7l-6.9,21.7h-4.5l-6.8-21.7v21.7h-5.1v-25.3Z"/>
    <path class="st1" d="M872.3,167.7h16.9v4.1h-11.5v6h10.8v4.1h-10.8v6.8h11.9v4.2h-17.3v-25.3Z"/>
    <path class="st1" d="M899.4,167.7h7.8l9.5,19.9v-19.9h5v25.3h-7.5l-9.8-21v21h-5.1v-25.3Z"/>
    <path class="st1" d="M938,171.9h-7.5v-4.2h20.5v4.2h-7.5v21.1h-5.5v-21.1Z"/>
  </g>
</svg>